<svg id="图层_1" data-name="图层 1" xmlns="http://www.w3.org/2000/svg" xmlns:xlink="http://www.w3.org/1999/xlink" viewBox="0 0 814.97 690.31"><defs><style>.cls-1{fill:url(#未命名的渐变_211);}.cls-2{fill:url(#未命名的渐变_185);}.cls-3{fill:#446a0d;opacity:0.86;}.cls-4{fill:#603813;}.cls-5{fill:none;stroke:#603813;stroke-linecap:round;stroke-miterlimit:10;stroke-width:0.75px;}.cls-6{fill:url(#未命名的渐变_206);}.cls-7{fill:url(#未命名的渐变_206-2);}.cls-8{fill:url(#未命名的渐变_206-3);}.cls-9{fill:url(#未命名的渐变_206-4);}.cls-10{fill:url(#未命名的渐变_206-5);}.cls-11{fill:url(#未命名的渐变_206-6);}.cls-12,.cls-20{opacity:0.48;}.cls-12{fill:url(#未命名的渐变_14);}.cls-13{fill:#fff;opacity:0.72;}.cls-14{opacity:0.63;fill:url(#未命名的渐变_206-7);}.cls-15{opacity:0.37;fill:url(#未命名的渐变_206-8);}.cls-16{opacity:0.76;fill:url(#未命名的渐变_206-9);}.cls-17{opacity:0.59;fill:url(#未命名的渐变_206-10);}.cls-18{opacity:0.39;fill:url(#未命名的渐变_206-11);}.cls-19{fill:url(#未命名的渐变_206-12);}.cls-20{fill:#e8ce97;}.cls-21{fill:#f4e7d7;}.cls-22,.cls-23{fill:#333;}.cls-22{opacity:0.32;}.cls-23{opacity:0.21;}</style><linearGradient id="未命名的渐变_211" x1="419.88" y1="675.76" x2="419.88" gradientUnits="userSpaceOnUse"><stop offset="0" stop-color="#fff"/><stop offset="0.13" stop-color="#fbf6f0"/><stop offset="0.33" stop-color="#f7eee2"/><stop offset="0.57" stop-color="#f5e9da"/><stop offset="0.96" stop-color="#f4e7d7"/></linearGradient><linearGradient id="未命名的渐变_185" x1="514.34" y1="868.56" x2="514.34" y2="631.95" gradientUnits="userSpaceOnUse"><stop offset="0" stop-color="#fff" stop-opacity="0"/><stop offset="0.01" stop-color="#feffff" stop-opacity="0.02"/><stop offset="0.08" stop-color="#f4fbfc" stop-opacity="0.22"/><stop offset="0.15" stop-color="#ebf7fa" stop-opacity="0.41"/><stop offset="0.23" stop-color="#e4f4f8" stop-opacity="0.57"/><stop offset="0.31" stop-color="#ddf2f7" stop-opacity="0.7"/><stop offset="0.4" stop-color="#d8f0f5" stop-opacity="0.81"/><stop offset="0.5" stop-color="#d4eef4" stop-opacity="0.9"/><stop offset="0.61" stop-color="#d1edf4" stop-opacity="0.95"/><stop offset="0.74" stop-color="#d0ecf3" stop-opacity="0.99"/><stop offset="0.96" stop-color="#cfecf3"/></linearGradient><linearGradient id="未命名的渐变_206" x1="224.32" y1="621.5" x2="224.32" y2="509.28" gradientTransform="matrix(1, 0.1, -0.1, 1, 55.08, -37.18)" gradientUnits="userSpaceOnUse"><stop offset="0" stop-color="#fff"/><stop offset="0.01" stop-color="#fffdfe"/><stop offset="0.14" stop-color="#fce3f5"/><stop offset="0.28" stop-color="#faceef"/><stop offset="0.44" stop-color="#f8c0ea"/><stop offset="0.64" stop-color="#f7b8e7"/><stop offset="0.96" stop-color="#f7b5e6"/></linearGradient><linearGradient id="未命名的渐变_206-2" x1="398.61" y1="609.66" x2="398.61" y2="292.43" xlink:href="#未命名的渐变_206"/><linearGradient id="未命名的渐变_206-3" x1="476.52" y1="614.82" x2="476.52" y2="420.9" xlink:href="#未命名的渐变_206"/><linearGradient id="未命名的渐变_206-4" x1="449.91" y1="609.88" x2="449.91" y2="350.02" xlink:href="#未命名的渐变_206"/><linearGradient id="未命名的渐变_206-5" x1="263.19" y1="614.96" x2="263.19" y2="365.99" xlink:href="#未命名的渐变_206"/><linearGradient id="未命名的渐变_206-6" x1="312.81" y1="613.48" x2="312.81" y2="353.83" xlink:href="#未命名的渐变_206"/><linearGradient id="未命名的渐变_14" x1="278.34" y1="565.93" x2="857.5" y2="565.93" gradientTransform="translate(-58.18 51.02) rotate(-6.08)" gradientUnits="userSpaceOnUse"><stop offset="0.11" stop-color="#fff"/><stop offset="0.58" stop-color="#f4e5c3"/><stop offset="0.94" stop-color="#edd299"/></linearGradient><linearGradient id="未命名的渐变_206-7" x1="-539.82" y1="1167.95" x2="-539.82" y2="908.09" gradientTransform="matrix(-0.2, -0.05, 0.09, -0.18, 490.81, 657.16)" xlink:href="#未命名的渐变_206"/><linearGradient id="未命名的渐变_206-8" x1="-529.72" y1="405.1" x2="-529.72" y2="145.24" gradientTransform="matrix(-0.32, -0.06, 0.09, -0.32, 534.02, 718.19)" xlink:href="#未命名的渐变_206"/><linearGradient id="未命名的渐变_206-9" x1="-240.07" y1="462.98" x2="-240.07" y2="203.12" gradientTransform="matrix(-0.2, -0.27, 0.29, -0.17, 434.02, 743.51)" xlink:href="#未命名的渐变_206"/><linearGradient id="未命名的渐变_206-10" x1="-57.33" y1="1603.51" x2="-57.33" y2="1343.65" gradientTransform="matrix(-0.26, -0.01, 0.11, -0.24, 498.58, 666.49)" xlink:href="#未命名的渐变_206"/><linearGradient id="未命名的渐变_206-11" x1="150.91" y1="-39.15" x2="150.91" y2="-299.01" gradientTransform="matrix(-0.08, -0.31, 0.31, -0.07, 358.45, 767.65)" xlink:href="#未命名的渐变_206"/><linearGradient id="未命名的渐变_206-12" x1="-1670.67" y1="1255.33" x2="-1670.67" y2="995.47" gradientTransform="matrix(-0.16, -0.03, 0.05, -0.16, 500.39, 643.86)" xlink:href="#未命名的渐变_206"/></defs><title>节气4</title><circle class="cls-1" cx="419.88" cy="337.88" r="337.88"/><path class="cls-2" d="M817.7,683.4c-18,32.28-78.68,131.2-198.61,170-13.74,4.44-53,15.19-99.26,15.19C380.41,868.56,261,782.06,211,659.19c.31-6.58,1.89-14.92,7.83-20.68,11.7-11.34,33.38-6,58.06,1.25,57.43,16.87,66.38,25.06,87.71,30,42.2,9.78,49-12.58,133.41-26.26,55.45-9,87.75-14.22,126-1.25,49.35,16.73,54.58,45.44,88.94,42.51,37.16-3.17,61.08-39.29,87.71-27.51a34.74,34.74,0,0,1,13.59,11.26Z" transform="translate(-94.46 -188.48)"/><path class="cls-3" d="M201.07,678.87c-36.06-4.82-71.6-36.06-76-71.75-5.21-42.58,36.11-74,45.29-81,17.91-13.65,21.42-8.41,61.36-30.56C269,474.88,270.45,467.82,296,457c13.11-5.55,37.59-15.65,70.12-15.95,12-.11,68.48.71,102.27,35.88,16.54,17.22,9.13,23.41,27.75,42.51,25,25.68,43.21,19.42,64.29,41.19,17.75,18.35,28.32,47,21.91,73.08-7.37,29.91-34.71,46.35-55.52,58.46-79.16,46.07-197,52.59-217.67,15.94-12.85-22.73,16.7-53.13,4.38-62.45C297.92,633.82,254.42,686,201.07,678.87Z" transform="translate(-94.46 -188.48)"/><path class="cls-4" d="M375.25,592.69c0,8.08-8.4,14.63-18.76,14.63-8.27,0-15.11-4.57-17.61-9.6a10.23,10.23,0,0,1-1.14-5c.32-6.14,7.09-14.63,18.75-14.63C366.85,578.06,375.25,584.61,375.25,592.69Z" transform="translate(-94.46 -188.48)"/><path class="cls-5" d="M371.2,600.6c31.63,5,56,7.74,73.14,9.38,13,1.24,27.6,2.38,45,10.31a113,113,0,0,1,25.32,15.94" transform="translate(-94.46 -188.48)"/><path class="cls-5" d="M433.87,613.73a167.05,167.05,0,0,1,31.88,53.45" transform="translate(-94.46 -188.48)"/><path class="cls-5" d="M343.58,590.14a120.09,120.09,0,0,0-38.37-2.43c-29,2.9-49.62,16-63.67,25.1a186,186,0,0,0-32.6,27" transform="translate(-94.46 -188.48)"/><path class="cls-6" d="M353.84,598.62c6.7-20-43.2-61.44-82.27-84-57.43-33.13-131.31-32.23-167.76-29.2-8.72.73-12.6,13.45-6.11,20,26.94,27.29,83.91,78.73,144.79,95C283.17,611.42,347,619,353.84,598.62Z" transform="translate(-94.46 -188.48)"/><path class="cls-7" d="M342.51,602.51c12.57,6.88,53.31-52.91,78.2-99.29,36.57-68.16,52.88-153.89,59.1-196.06,1.49-10.09-6.61-14-12.75-6.19-25.45,32.49-74.86,100.95-100.35,172.36C349.68,521,329.7,595.5,342.51,602.51Z" transform="translate(-94.46 -188.48)"/><path class="cls-8" d="M342.16,601.29c7.48,19.08,74.21,2.92,120.07-16.33,67.39-28.28,126.07-93.5,153.35-127.38,6.52-8.11,1.44-19.93-8-18.61-39.18,5.47-118,21.23-177.33,63.66C390.6,531,334.53,581.82,342.16,601.29Z" transform="translate(-94.46 -188.48)"/><path class="cls-9" d="M349.83,601.81c10.61,13,67-26.25,104.1-60,54.5-49.56,93.62-126.47,111.07-165.19,4.18-9.26-2.8-17.14-11-12.39C520.09,384,452.79,427.51,408.4,485.73,378.74,524.63,339,588.57,349.83,601.81Z" transform="translate(-94.46 -188.48)"/><path class="cls-10" d="M348,606.84c12.39-10.37-9.86-76.66-31-121.08-31-65.27-86.89-116.4-115.42-139.67-6.83-5.57-14.44,1.31-12,10.83,10.21,39.48,34.11,118.25,73.89,173.26C290.1,566.94,335.34,617.41,348,606.84Z" transform="translate(-94.46 -188.48)"/><path class="cls-11" d="M362.27,607.77c14.26-6.52,8.91-70.56-.55-114.83-13.91-65.06-54.89-123-76.47-150-5.17-6.47-14-2-14,7,.28,37.48,4.23,113,28.94,170.86C316.73,559.43,347.72,614.42,362.27,607.77Z" transform="translate(-94.46 -188.48)"/><path class="cls-12" d="M303.93,785.29C361.53,756.83,483.17,687,577.59,545c82.48-124.06,105-244.28,112.31-307.22l0-2.41c114.39,69.37,181.2,203.43,158.29,343.56C818,763.09,644.34,888,460.17,857.86a336.41,336.41,0,0,1-160.24-72.55" transform="translate(-94.46 -188.48)"/><ellipse class="cls-13" cx="371.43" cy="306.68" rx="46.53" ry="27.97" transform="translate(-197.94 198.66) rotate(-49.16)"/><path class="cls-14" d="M724.71,476c-1.21-2.76-15.66,2.75-25.76,7.85-14.83,7.5-28.55,20.57-35,27.22-1.54,1.6-.7,3.28,1.33,2.66,8.41-2.59,25.41-8.55,38.82-18C713.06,489.48,725.94,478.84,724.71,476Z" transform="translate(-94.46 -188.48)"/><path class="cls-15" d="M772.77,628.77c-2.7-4.48-23.69,6.38-38,16.06-21,14.23-38.63,37.68-46.76,49.55-1.95,2.84-.13,5.57,2.85,4.3,12.39-5.28,37.25-17.2,55.46-34.5C758.49,652.61,775.52,633.34,772.77,628.77Z" transform="translate(-94.46 -188.48)"/><path class="cls-16" d="M635.8,756.09c1.09-5.12-22.39-11.65-40-14.44-25.85-4.1-55.59.84-70.05,3.89-3.46.73-4,4-.85,5.09,13.07,4.68,40.21,13.1,66.1,13C608.31,763.62,634.69,761.3,635.8,756.09Z" transform="translate(-94.46 -188.48)"/><path class="cls-17" d="M716.66,280.48c-1.77-3-20.41,7.24-33.35,15.89-19,12.71-36.2,31.83-44.25,41.42-1.92,2.3-.71,4.11,1.91,2.85,10.89-5.21,32.85-16.64,49.87-31.31C702.21,299.53,718.46,283.54,716.66,280.48Z" transform="translate(-94.46 -188.48)"/><path class="cls-18" d="M341.21,753.26c2.78-4.43-15.26-17.65-29.53-25.6-21-11.67-48.55-16.11-62.19-17.68-3.26-.37-4.89,2.48-2.56,4.48,9.67,8.33,30.21,24.43,52.7,32.24C314.65,751.91,338.37,757.78,341.21,753.26Z" transform="translate(-94.46 -188.48)"/><path class="cls-19" d="M855.14,490.08c-1.32-2.2-12.22,3.52-19.67,8.55-11,7.4-20.31,19.35-24.64,25.39-1,1.44-.15,2.78,1.4,2.1,6.42-2.81,19.31-9.1,28.87-18C847.49,502.18,856.48,492.32,855.14,490.08Z" transform="translate(-94.46 -188.48)"/><circle class="cls-20" cx="778.25" cy="91.9" r="36.73"/><circle class="cls-21" cx="114.48" cy="638.88" r="51.42"/><path class="cls-22" d="M893,249.93c1.12,3.48,6,19.82-2.78,37.13-10.26,20.34-30.94,25.53-33.86,26.21a36.73,36.73,0,0,0,36.91-63.34" transform="translate(-94.46 -188.48)"/><path class="cls-23" d="M244.76,792.07c.58,5,2.75,28.54-13.88,49.67-19.54,24.82-49.18,26.22-53.34,26.35a50.93,50.93,0,0,0,67.6-76" transform="translate(-94.46 -188.48)"/></svg>